<svg xmlns="http://www.w3.org/2000/svg" viewBox="0 0 512 512" role="img" aria-labelledby="title desc">
  <title id="title">Komari Theme Thumbnail</title>
  <desc id="desc">Updated preview thumbnail reflecting the latest Komari homepage layout with overview cards, filter bar and node cards.</desc>
  <defs>
    <linearGradient id="bg" x1="0%" y1="0%" x2="100%" y2="100%">
      <stop offset="0%" stop-color="#f8fafc" />
      <stop offset="100%" stop-color="#dbeafe" />
    </linearGradient>
    <linearGradient id="header" x1="0%" y1="0%" x2="0%" y2="100%">
      <stop offset="0%" stop-color="#0f172a" />
      <stop offset="100%" stop-color="#1e293b" />
    </linearGradient>
    <linearGradient id="brand" x1="0%" y1="0%" x2="100%" y2="100%">
      <stop offset="0%" stop-color="#2563eb" />
      <stop offset="100%" stop-color="#1d4ed8" />
    </linearGradient>
    <filter id="shadow" x="-20%" y="-20%" width="140%" height="140%">
      <feDropShadow dx="0" dy="6" stdDeviation="12" flood-color="rgba(15,23,42,0.10)" />
    </filter>
    <filter id="shadowSm" x="-20%" y="-20%" width="140%" height="140%">
      <feDropShadow dx="0" dy="3" stdDeviation="6" flood-color="rgba(15,23,42,0.08)" />
    </filter>
  </defs>

  <rect width="512" height="512" rx="36" fill="url(#bg)" />
  <circle cx="416" cy="96" r="128" fill="rgba(37,99,235,0.08)" />
  <circle cx="108" cy="452" r="96" fill="rgba(59,130,246,0.06)" />

  <rect x="28" y="28" width="456" height="68" rx="18" fill="url(#header)" filter="url(#shadow)" />
  <rect x="46" y="44" width="34" height="34" rx="11" fill="url(#brand)" />
  <text x="63" y="66" fill="#ffffff" font-family="Helvetica, Arial, sans-serif" font-size="18" font-weight="900" text-anchor="middle">K</text>
  <text x="92" y="60" fill="#f8fafc" font-family="Helvetica, Arial, sans-serif" font-size="17" font-weight="900">Komari Monitor</text>
  <circle cx="92" cy="74" r="3" fill="#10b981" />
  <text x="100" y="78" fill="rgba(255,255,255,0.74)" font-family="Helvetica, Arial, sans-serif" font-size="9" font-weight="800">实时连接中</text>
  <rect x="388" y="47" width="72" height="28" rx="8" fill="rgba(59,130,246,0.16)" stroke="rgba(96,165,250,0.35)" stroke-width="1" />
  <text x="424" y="65" fill="#60a5fa" font-family="Helvetica, Arial, sans-serif" font-size="11" font-weight="800" text-anchor="middle">后台设置</text>

  <rect x="28" y="112" width="456" height="112" rx="18" fill="#ffffff" filter="url(#shadowSm)" />

  <rect x="46" y="128" width="98" height="80" rx="12" fill="#f8fafc" stroke="#e2e8f0" stroke-width="1" />
  <text x="58" y="150" fill="#64748b" font-family="Helvetica, Arial, sans-serif" font-size="8" font-weight="800">受管节点</text>
  <text x="58" y="182" fill="#0f172a" font-family="Helvetica, Arial, sans-serif" font-size="26" font-weight="900">19</text>
  <text x="92" y="182" fill="#64748b" font-family="Helvetica, Arial, sans-serif" font-size="11" font-weight="700">/ 20</text>

  <rect x="154" y="128" width="98" height="80" rx="12" fill="#fff7ed" stroke="#fdba74" stroke-width="1" />
  <text x="166" y="150" fill="#9a3412" font-family="Helvetica, Arial, sans-serif" font-size="8" font-weight="800">在线节点告警</text>
  <text x="166" y="182" fill="#f97316" font-family="Helvetica, Arial, sans-serif" font-size="26" font-weight="900">2</text>
  <text x="194" y="182" fill="#9a3412" font-family="Helvetica, Arial, sans-serif" font-size="10" font-weight="800">NODES</text>

  <rect x="262" y="128" width="132" height="80" rx="12" fill="#f8fafc" stroke="#e2e8f0" stroke-width="1" />
  <text x="274" y="150" fill="#64748b" font-family="Helvetica, Arial, sans-serif" font-size="8" font-weight="800">网络流量总览</text>
  <text x="274" y="170" fill="#64748b" font-family="Helvetica, Arial, sans-serif" font-size="7" font-weight="700">下载</text>
  <text x="274" y="188" fill="#0f172a" font-family="Helvetica, Arial, sans-serif" font-size="12" font-weight="900">↓ 1.24 GB/s</text>
  <line x1="328" y1="162" x2="328" y2="194" stroke="#e2e8f0" stroke-width="1" />
  <text x="340" y="170" fill="#64748b" font-family="Helvetica, Arial, sans-serif" font-size="7" font-weight="700">上传</text>
  <text x="340" y="188" fill="#0f172a" font-family="Helvetica, Arial, sans-serif" font-size="12" font-weight="900">↑ 0.82 GB/s</text>

  <rect x="404" y="128" width="62" height="80" rx="12" fill="#fff7ed" stroke="#fdba74" stroke-width="1" />
  <text x="416" y="150" fill="#9a3412" font-family="Helvetica, Arial, sans-serif" font-size="8" font-weight="800">系统状态</text>
  <circle cx="422" cy="174" r="4" fill="#f59e0b" />
  <text x="432" y="178" fill="#9a3412" font-family="Helvetica, Arial, sans-serif" font-size="8" font-weight="800">存在风险</text>

  <rect x="28" y="240" width="456" height="56" rx="16" fill="#ffffff" filter="url(#shadowSm)" />
  <rect x="44" y="255" width="52" height="26" rx="8" fill="#eff6ff" stroke="#2563eb" stroke-width="1.25" />
  <text x="70" y="272" fill="#2563eb" font-family="Helvetica, Arial, sans-serif" font-size="10" font-weight="800" text-anchor="middle">全部</text>
  <rect x="104" y="255" width="72" height="26" rx="8" fill="transparent" />
  <text x="140" y="272" fill="#64748b" font-family="Helvetica, Arial, sans-serif" font-size="10" font-weight="700" text-anchor="middle">生产组</text>
  <rect x="184" y="255" width="72" height="26" rx="8" fill="transparent" />
  <text x="220" y="272" fill="#64748b" font-family="Helvetica, Arial, sans-serif" font-size="10" font-weight="700" text-anchor="middle">测试组</text>
  <rect x="394" y="255" width="74" height="26" rx="8" fill="#f8fafc" stroke="#e2e8f0" stroke-width="1.25" />
  <circle cx="408" cy="268" r="5" stroke="#94a3b8" stroke-width="1.25" fill="none" />
  <line x1="411" y1="271" x2="416" y2="276" stroke="#94a3b8" stroke-width="1.25" stroke-linecap="round" />

  <rect x="28" y="312" width="220" height="164" rx="18" fill="#ffffff" filter="url(#shadowSm)" />
  <rect x="28" y="312" width="5" height="164" rx="2.5" fill="#10b981" />
  <text x="48" y="340" fill="#0f172a" font-family="Helvetica, Arial, sans-serif" font-size="14" font-weight="800">Node-Alpha-01</text>
  <rect x="48" y="348" width="56" height="18" rx="999" fill="rgba(16,185,129,0.15)" stroke="rgba(16,185,129,0.3)" stroke-width="1" />
  <circle cx="56" cy="357" r="3" fill="#10b981" />
  <text x="64" y="361" fill="#10b981" font-family="Helvetica, Arial, sans-serif" font-size="9" font-weight="800">在线</text>

  <rect x="48" y="376" width="84" height="48" rx="8" fill="rgba(16,185,129,0.12)" />
  <text x="58" y="394" fill="#64748b" font-family="Helvetica, Arial, sans-serif" font-size="8" font-weight="700">CPU</text>
  <text x="58" y="414" fill="#10b981" font-family="Helvetica, Arial, sans-serif" font-size="16" font-weight="900">42%</text>
  <rect x="58" y="418" width="62" height="4" rx="2" fill="rgba(0,0,0,0.06)" />
  <rect x="58" y="418" width="26" height="4" rx="2" fill="#10b981" />

  <rect x="144" y="376" width="84" height="48" rx="8" fill="rgba(16,185,129,0.12)" />
  <text x="154" y="394" fill="#64748b" font-family="Helvetica, Arial, sans-serif" font-size="8" font-weight="700">内存</text>
  <text x="154" y="414" fill="#10b981" font-family="Helvetica, Arial, sans-serif" font-size="16" font-weight="900">38%</text>
  <rect x="154" y="418" width="62" height="4" rx="2" fill="rgba(0,0,0,0.06)" />
  <rect x="154" y="418" width="24" height="4" rx="2" fill="#10b981" />

  <rect x="48" y="432" width="84" height="32" rx="7" fill="rgba(245,158,11,0.10)" stroke="rgba(245,158,11,0.18)" stroke-width="1" />
  <text x="58" y="446" fill="#64748b" font-family="Helvetica, Arial, sans-serif" font-size="7" font-weight="700">磁盘</text>
  <text x="58" y="459" fill="#f59e0b" font-family="Helvetica, Arial, sans-serif" font-size="12" font-weight="900">72%</text>

  <rect x="144" y="432" width="84" height="32" rx="7" fill="rgba(37,99,235,0.10)" stroke="rgba(37,99,235,0.18)" stroke-width="1" />
  <text x="154" y="446" fill="#64748b" font-family="Helvetica, Arial, sans-serif" font-size="7" font-weight="700">系统负载</text>
  <text x="154" y="459" fill="#2563eb" font-family="Helvetica, Arial, sans-serif" font-size="12" font-weight="900">31%</text>

  <rect x="264" y="312" width="220" height="164" rx="18" fill="#f1f5f9" stroke="#94a3b8" stroke-width="1.5" stroke-dasharray="6 5" filter="url(#shadowSm)" />
  <rect x="264" y="312" width="5" height="164" rx="2.5" fill="#94a3b8" />
  <text x="284" y="340" fill="#475569" font-family="Helvetica, Arial, sans-serif" font-size="14" font-weight="800">Node-Beta-02</text>
  <rect x="284" y="348" width="56" height="18" rx="999" fill="rgba(148,163,184,0.18)" stroke="rgba(148,163,184,0.28)" stroke-width="1" />
  <circle cx="292" cy="357" r="3" fill="#94a3b8" />
  <text x="300" y="361" fill="#64748b" font-family="Helvetica, Arial, sans-serif" font-size="9" font-weight="800">离线</text>

  <rect x="284" y="376" width="84" height="48" rx="8" fill="#e2e8f0" opacity="0.9" />
  <text x="294" y="394" fill="#64748b" font-family="Helvetica, Arial, sans-serif" font-size="8" font-weight="700">CPU</text>
  <text x="294" y="414" fill="#64748b" font-family="Helvetica, Arial, sans-serif" font-size="16" font-weight="900">--</text>

  <rect x="380" y="376" width="84" height="48" rx="8" fill="#e2e8f0" opacity="0.9" />
  <text x="390" y="394" fill="#64748b" font-family="Helvetica, Arial, sans-serif" font-size="8" font-weight="700">内存</text>
  <text x="390" y="414" fill="#64748b" font-family="Helvetica, Arial, sans-serif" font-size="16" font-weight="900">--</text>

  <rect x="284" y="432" width="84" height="32" rx="7" fill="#e2e8f0" opacity="0.9" />
  <text x="294" y="446" fill="#64748b" font-family="Helvetica, Arial, sans-serif" font-size="7" font-weight="700">磁盘</text>
  <text x="294" y="459" fill="#64748b" font-family="Helvetica, Arial, sans-serif" font-size="12" font-weight="900">--</text>

  <rect x="380" y="432" width="84" height="32" rx="7" fill="#e2e8f0" opacity="0.9" />
  <text x="390" y="446" fill="#64748b" font-family="Helvetica, Arial, sans-serif" font-size="7" font-weight="700">系统负载</text>
  <text x="390" y="459" fill="#64748b" font-family="Helvetica, Arial, sans-serif" font-size="12" font-weight="900">--</text>

  <text x="256" y="494" fill="#64748b" font-family="Helvetica, Arial, sans-serif" font-size="10" font-weight="500" text-anchor="middle">Powered by Komari Monitor.</text>
</svg>
